<svg xmlns="http://www.w3.org/2000/svg" viewBox="0 0 1600 1050" role="img" aria-labelledby="title desc">
<title id="title">Line 2 Conveyor Control Cabinet Interior Layout</title><desc id="desc">Engineering cabinet layout based on the approved reference render. No conductors or inferred wiring are shown.</desc>
<style>text{font-family:Arial,sans-serif;fill:#111}.drawing{fill:#fff;stroke:#111;stroke-width:2}.device{fill:#fff;stroke:#111;stroke-width:1.6;cursor:pointer}.device:hover{fill:#dfeeff;stroke:#0878cf;stroke-width:3}.device-label{font-size:12px;font-weight:700;text-anchor:middle}.device-label.left{text-anchor:start}.breaker-label{font-size:8px;font-weight:700;text-anchor:middle}.section-label{font-size:24px;font-weight:700}.brand-small{font-size:13px;font-style:italic;text-anchor:middle}.brand-small.left{text-anchor:start}.tiny{font-size:9px}.display{font-family:monospace;font-size:17px;font-weight:700;text-anchor:middle}.terminal-pattern{fill:none;stroke:#111}.rail{fill:#f7f7f7;stroke:#111;stroke-width:2}.duct{fill:#fafafa;stroke:#111;stroke-width:2}.info{fill:#fff;stroke:#111;stroke-width:1.5}.info-label{font-size:13px;font-weight:700}.info-text{font-size:12px}</style>
<rect width="1600" height="1050" fill="#fff"/><text x="28" y="35" class="section-label">LINE 2 CONVEYOR CONTROL CABINET</text><text x="28" y="58" font-size="18">INTERIOR LAYOUT</text>
<g id="cabinet-enclosure"><rect x="55" y="75" width="1190" height="925" rx="14" class="drawing"/><rect x="75" y="95" width="1150" height="885" class="drawing"/>
<rect x="90" y="290" width="1085" height="32" class="duct"/><rect x="90" y="475" width="1085" height="30" class="duct"/><rect x="90" y="690" width="1085" height="30" class="duct"/><rect x="90" y="855" width="1085" height="30" class="duct"/>
<rect x="100" y="275" width="1040" height="10" class="rail"/><rect x="100" y="465" width="1040" height="10" class="rail"/><rect x="100" y="680" width="1040" height="10" class="rail"/><rect x="100" y="845" width="1040" height="10" class="rail"/><g id="main-protection-1" data-device-id="main-protection-1" class="device device-circuit_breaker"><text x="120" y="138" class="device-label left">ABB MAIN PROTECTION</text><rect x="120" y="145" width="30" height="118"/><rect x="128" y="165" width="14" height="76"/><circle cx="135.0" cy="198.1" r="6"/></g>
<g id="main-protection-2" data-device-id="main-protection-2" class="device device-circuit_breaker"><rect x="154" y="145" width="30" height="118"/><rect x="162" y="165" width="14" height="76"/><circle cx="169.0" cy="198.1" r="6"/></g>
<g id="main-protection-3" data-device-id="main-protection-3" class="device device-circuit_breaker"><rect x="188" y="145" width="30" height="118"/><rect x="196" y="165" width="14" height="76"/><circle cx="203.0" cy="198.1" r="6"/></g>
<g id="control-fuse" data-device-id="control-fuse" class="device device-fuse"><text x="252.0" y="152" class="device-label">Control fuse</text><rect x="235" y="160" width="34" height="85" rx="2"/><rect x="245.2" y="180" width="13.600000000000001" height="38.25"/><circle cx="252.0" cy="195.7" r="5.44"/><text x="252.0" y="199.95" class="device-label"></text></g>
<g id="control-transformer" data-device-id="control-transformer" class="device device-control_transformer"><text x="347.5" y="145" class="device-label">CONTROL</text><text x="347.5" y="159" class="device-label">TRANSFORMER</text><rect x="300" y="167" width="95" height="98"/><rect x="320" y="177" width="55" height="68"/><path d="M315 170v-10m15 10v-10m15 10v-10m15 10v-10m15 10v-10"/></g>
<g id="plc-micrologix-1400" data-device-id="plc-micrologix-1400" class="device device-plc"><rect x="425" y="130" width="250" height="140" rx="3"/><text x="437" y="152" class="brand-small left">Allen-Bradley</text><text x="443" y="200" class="device-label left">MicroLogix 1400</text><rect x="565" y="168" width="58" height="36"/><circle cx="643" cy="187" r="15"/><rect x="440" y="232" width="20" height="22"/><text x="479" y="250" class="tiny">Ethernet</text><path d="M517 235h145v22H517z" class="terminal-pattern"/></g>
<g id="io-1762-ia8" data-device-id="io-1762-ia8" class="device device-digital_input"><rect x="680" y="130" width="68" height="140"/><text x="714.0" y="150" class="device-label">1762-IA8</text><circle cx="696" cy="240" r="3"/><circle cx="708" cy="240" r="3"/><circle cx="720" cy="240" r="3"/><circle cx="732" cy="240" r="3"/><rect x="692" y="250" width="44" height="15" class="terminal-pattern"/></g>
<g id="io-1762-ib16" data-device-id="io-1762-ib16" class="device device-digital_input"><rect x="752" y="130" width="68" height="140"/><text x="786.0" y="150" class="device-label">1762-IB16</text><circle cx="768" cy="240" r="3"/><circle cx="780" cy="240" r="3"/><circle cx="792" cy="240" r="3"/><circle cx="804" cy="240" r="3"/><rect x="764" y="250" width="44" height="15" class="terminal-pattern"/></g>
<g id="io-1762-ob16" data-device-id="io-1762-ob16" class="device device-digital_output"><rect x="824" y="130" width="68" height="140"/><text x="858.0" y="150" class="device-label">1762-OB16</text><circle cx="840" cy="240" r="3"/><circle cx="852" cy="240" r="3"/><circle cx="864" cy="240" r="3"/><circle cx="876" cy="240" r="3"/><rect x="836" y="250" width="44" height="15" class="terminal-pattern"/></g>
<g id="io-1762-if4" data-device-id="io-1762-if4" class="device device-analog_input"><rect x="896" y="130" width="68" height="140"/><text x="930.0" y="150" class="device-label">1762-IF4</text><circle cx="912" cy="240" r="3"/><circle cx="924" cy="240" r="3"/><circle cx="936" cy="240" r="3"/><circle cx="948" cy="240" r="3"/><rect x="908" y="250" width="44" height="15" class="terminal-pattern"/></g>
<g id="io-1762-of4" data-device-id="io-1762-of4" class="device device-analog_output"><rect x="968" y="130" width="68" height="140"/><text x="1002.0" y="150" class="device-label">1762-OF4</text><circle cx="984" cy="240" r="3"/><circle cx="996" cy="240" r="3"/><circle cx="1008" cy="240" r="3"/><circle cx="1020" cy="240" r="3"/><rect x="980" y="250" width="44" height="15" class="terminal-pattern"/></g>
<g id="io-1762-ow8" data-device-id="io-1762-ow8" class="device device-relay_output"><rect x="1040" y="130" width="68" height="140"/><text x="1074.0" y="150" class="device-label">1762-OW8</text><circle cx="1056" cy="240" r="3"/><circle cx="1068" cy="240" r="3"/><circle cx="1080" cy="240" r="3"/><circle cx="1092" cy="240" r="3"/><rect x="1052" y="250" width="44" height="15" class="terminal-pattern"/></g>
<g id="door-disconnect" data-device-id="door-disconnect" class="device device-disconnect"><text x="1156.0" y="127" class="device-label">DOOR</text><text x="1156.0" y="141" class="device-label">DISCONNECT</text><rect x="1120" y="145" width="72" height="240"/><circle cx="1156.0" cy="180" r="24"/><path d="M1140 220h32v95H1140zM1130 330h52v38H1130z"/></g>
<g id="cb-01" data-device-id="cb-01" class="device device-circuit_breaker"><text x="128.0" y="335" class="breaker-label">SURGE</text><text x="128.0" y="347" class="breaker-label">TABLE</text><rect x="95" y="355" width="66" height="105" rx="2"/><rect x="114.8" y="375" width="26.400000000000002" height="47.25"/><circle cx="128.0" cy="399.1" r="10.56"/><text x="128.0" y="450" class="device-label">CB1</text></g>
<g id="cb-02" data-device-id="cb-02" class="device device-circuit_breaker"><text x="200.0" y="335" class="breaker-label">LABELER</text><text x="200.0" y="347" class="breaker-label">BLOWER</text><rect x="167" y="355" width="66" height="105" rx="2"/><rect x="186.8" y="375" width="26.400000000000002" height="47.25"/><circle cx="200.0" cy="399.1" r="10.56"/><text x="200.0" y="450" class="device-label">CB2</text></g>
<g id="cb-03" data-device-id="cb-03" class="device device-circuit_breaker"><text x="272.0" y="335" class="breaker-label">PADLOCKER</text><text x="272.0" y="347" class="breaker-label">OUTLET</text><rect x="239" y="355" width="66" height="105" rx="2"/><rect x="258.8" y="375" width="26.400000000000002" height="47.25"/><circle cx="272.0" cy="399.1" r="10.56"/><text x="272.0" y="450" class="device-label">CB3</text></g>
<g id="cb-04" data-device-id="cb-04" class="device device-circuit_breaker"><text x="344.0" y="335" class="breaker-label">DUD</text><text x="344.0" y="347" class="breaker-label">BLOWER</text><rect x="311" y="355" width="66" height="105" rx="2"/><rect x="330.8" y="375" width="26.400000000000002" height="47.25"/><circle cx="344.0" cy="399.1" r="10.56"/><text x="344.0" y="450" class="device-label">CB4</text></g>
<g id="cb-05" data-device-id="cb-05" class="device device-motor_protector"><text x="416.0" y="335" class="breaker-label">MTR1</text><text x="416.0" y="347" class="breaker-label"></text><rect x="383" y="355" width="66" height="105" rx="2"/><rect x="402.8" y="375" width="26.400000000000002" height="47.25"/><circle cx="416.0" cy="399.1" r="10.56"/><text x="416.0" y="450" class="device-label">CB5</text></g>
<g id="cb-06" data-device-id="cb-06" class="device device-motor_protector"><text x="488.0" y="335" class="breaker-label">MTR2</text><text x="488.0" y="347" class="breaker-label"></text><rect x="455" y="355" width="66" height="105" rx="2"/><rect x="474.8" y="375" width="26.400000000000002" height="47.25"/><circle cx="488.0" cy="399.1" r="10.56"/><text x="488.0" y="450" class="device-label">CB6</text></g>
<g id="cb-07" data-device-id="cb-07" class="device device-motor_protector"><text x="560.0" y="335" class="breaker-label">MTR3</text><text x="560.0" y="347" class="breaker-label"></text><rect x="527" y="355" width="66" height="105" rx="2"/><rect x="546.8" y="375" width="26.400000000000002" height="47.25"/><circle cx="560.0" cy="399.1" r="10.56"/><text x="560.0" y="450" class="device-label">CB7</text></g>
<g id="cb-08" data-device-id="cb-08" class="device device-motor_protector"><text x="632.0" y="335" class="breaker-label">MTR4</text><text x="632.0" y="347" class="breaker-label"></text><rect x="599" y="355" width="66" height="105" rx="2"/><rect x="618.8" y="375" width="26.400000000000002" height="47.25"/><circle cx="632.0" cy="399.1" r="10.56"/><text x="632.0" y="450" class="device-label">CB8</text></g>
<g id="cb-09" data-device-id="cb-09" class="device device-motor_protector"><text x="704.0" y="335" class="breaker-label">MTR5</text><text x="704.0" y="347" class="breaker-label"></text><rect x="671" y="355" width="66" height="105" rx="2"/><rect x="690.8" y="375" width="26.400000000000002" height="47.25"/><circle cx="704.0" cy="399.1" r="10.56"/><text x="704.0" y="450" class="device-label">CB9</text></g>
<g id="cb-10" data-device-id="cb-10" class="device device-motor_protector"><text x="776.0" y="335" class="breaker-label">MTR6</text><text x="776.0" y="347" class="breaker-label"></text><rect x="743" y="355" width="66" height="105" rx="2"/><rect x="762.8" y="375" width="26.400000000000002" height="47.25"/><circle cx="776.0" cy="399.1" r="10.56"/><text x="776.0" y="450" class="device-label">CB10</text></g>
<g id="cb-11" data-device-id="cb-11" class="device device-motor_protector"><text x="848.0" y="335" class="breaker-label">MTR7</text><text x="848.0" y="347" class="breaker-label"></text><rect x="815" y="355" width="66" height="105" rx="2"/><rect x="834.8" y="375" width="26.400000000000002" height="47.25"/><circle cx="848.0" cy="399.1" r="10.56"/><text x="848.0" y="450" class="device-label">CB11</text></g>
<g id="cb-12" data-device-id="cb-12" class="device device-motor_protector"><text x="920.0" y="335" class="breaker-label">MTR8</text><text x="920.0" y="347" class="breaker-label"></text><rect x="887" y="355" width="66" height="105" rx="2"/><rect x="906.8" y="375" width="26.400000000000002" height="47.25"/><circle cx="920.0" cy="399.1" r="10.56"/><text x="920.0" y="450" class="device-label">CB12</text></g>
<g id="cb-13" data-device-id="cb-13" class="device device-motor_protector"><text x="992.0" y="335" class="breaker-label">MTR9</text><text x="992.0" y="347" class="breaker-label"></text><rect x="959" y="355" width="66" height="105" rx="2"/><rect x="978.8" y="375" width="26.400000000000002" height="47.25"/><circle cx="992.0" cy="399.1" r="10.56"/><text x="992.0" y="450" class="device-label">CB13</text></g>
<g id="cb-14" data-device-id="cb-14" class="device device-motor_protector"><text x="1064.0" y="335" class="breaker-label">MTR10</text><text x="1064.0" y="347" class="breaker-label"></text><rect x="1031" y="355" width="66" height="105" rx="2"/><rect x="1050.8" y="375" width="26.400000000000002" height="47.25"/><circle cx="1064.0" cy="399.1" r="10.56"/><text x="1064.0" y="450" class="device-label">CB14</text></g>
<g id="vfd-01" data-device-id="vfd-01" class="device device-vfd"><text x="152.5" y="527" class="device-label">DRIVE #1</text><rect x="105" y="535" width="95" height="140" rx="3"/><rect x="128" y="553" width="49" height="24"/><text x="152.5" y="570" class="display">8888</text><circle cx="133" cy="595" r="7"/><circle cx="153" cy="595" r="7"/><circle cx="173" cy="595" r="7"/><text x="152.5" y="647" class="brand-small">PowerFlex</text><text x="152.5" y="665" class="device-label">4</text></g>
<g id="vfd-02" data-device-id="vfd-02" class="device device-vfd"><text x="287.5" y="527" class="device-label">DRIVE #2</text><rect x="240" y="535" width="95" height="140" rx="3"/><rect x="263" y="553" width="49" height="24"/><text x="287.5" y="570" class="display">8888</text><circle cx="268" cy="595" r="7"/><circle cx="288" cy="595" r="7"/><circle cx="308" cy="595" r="7"/><text x="287.5" y="647" class="brand-small">PowerFlex</text><text x="287.5" y="665" class="device-label">4</text></g>
<g id="vfd-03" data-device-id="vfd-03" class="device device-vfd"><text x="422.5" y="527" class="device-label">DRIVE #3</text><rect x="375" y="535" width="95" height="140" rx="3"/><rect x="398" y="553" width="49" height="24"/><text x="422.5" y="570" class="display">8888</text><circle cx="403" cy="595" r="7"/><circle cx="423" cy="595" r="7"/><circle cx="443" cy="595" r="7"/><text x="422.5" y="647" class="brand-small">PowerFlex</text><text x="422.5" y="665" class="device-label">4</text></g>
<g id="vfd-04" data-device-id="vfd-04" class="device device-vfd"><text x="557.5" y="527" class="device-label">DRIVE #4</text><rect x="510" y="535" width="95" height="140" rx="3"/><rect x="533" y="553" width="49" height="24"/><text x="557.5" y="570" class="display">8888</text><circle cx="538" cy="595" r="7"/><circle cx="558" cy="595" r="7"/><circle cx="578" cy="595" r="7"/><text x="557.5" y="647" class="brand-small">PowerFlex</text><text x="557.5" y="665" class="device-label">4</text></g>
<g id="vfd-05" data-device-id="vfd-05" class="device device-vfd"><text x="692.5" y="527" class="device-label">DRIVE #5</text><rect x="645" y="535" width="95" height="140" rx="3"/><rect x="668" y="553" width="49" height="24"/><text x="692.5" y="570" class="display">8888</text><circle cx="673" cy="595" r="7"/><circle cx="693" cy="595" r="7"/><circle cx="713" cy="595" r="7"/><text x="692.5" y="647" class="brand-small">PowerFlex</text><text x="692.5" y="665" class="device-label">4</text></g>
<g id="vfd-06" data-device-id="vfd-06" class="device device-vfd"><text x="827.5" y="527" class="device-label">CONV #6</text><rect x="780" y="535" width="95" height="140" rx="3"/><rect x="803" y="553" width="49" height="24"/><text x="827.5" y="570" class="display">8888</text><circle cx="808" cy="595" r="7"/><circle cx="828" cy="595" r="7"/><circle cx="848" cy="595" r="7"/><text x="827.5" y="647" class="brand-small">PowerFlex</text><text x="827.5" y="665" class="device-label">4</text></g>
<g id="vfd-07" data-device-id="vfd-07" class="device device-vfd"><text x="962.5" y="527" class="device-label">CONV #7</text><rect x="915" y="535" width="95" height="140" rx="3"/><rect x="938" y="553" width="49" height="24"/><text x="962.5" y="570" class="display">8888</text><circle cx="943" cy="595" r="7"/><circle cx="963" cy="595" r="7"/><circle cx="983" cy="595" r="7"/><text x="962.5" y="647" class="brand-small">PowerFlex</text><text x="962.5" y="665" class="device-label">4</text></g>
<g id="vfd-08" data-device-id="vfd-08" class="device device-vfd"><text x="1097.5" y="527" class="device-label">DRIVE #8</text><rect x="1050" y="535" width="95" height="140" rx="3"/><rect x="1073" y="553" width="49" height="24"/><text x="1097.5" y="570" class="display">8888</text><circle cx="1078" cy="595" r="7"/><circle cx="1098" cy="595" r="7"/><circle cx="1118" cy="595" r="7"/><text x="1097.5" y="647" class="brand-small">PowerFlex</text><text x="1097.5" y="665" class="device-label">4</text></g>
<g id="power-supply-24vdc" data-device-id="power-supply-24vdc" class="device device-power_supply"><rect x="90" y="735" width="145" height="115"/><text x="104" y="763" class="section-label">MW</text><text x="162.5" y="801" class="device-label">120W</text><text x="162.5" y="823" class="device-label">24VDC</text><circle cx="108" cy="839" r="4"/><circle cx="217" cy="839" r="4"/></g>
<g id="distribution-terminals" data-device-id="distribution-terminals" class="device device-terminal_block"><text x="450.0" y="762" class="device-label">24VDC distribution terminals</text><rect x="289" y="770" width="9" height="18"/><rect x="299" y="770" width="9" height="18"/><rect x="309" y="770" width="9" height="18"/><rect x="319" y="770" width="9" height="18"/><rect x="329" y="770" width="9" height="18"/><rect x="339" y="770" width="9" height="18"/><rect x="349" y="770" width="9" height="18"/><rect x="359" y="770" width="9" height="18"/><rect x="369" y="770" width="9" height="18"/><rect x="379" y="770" width="9" height="18"/><rect x="389" y="770" width="9" height="18"/><rect x="399" y="770" width="9" height="18"/><rect x="409" y="770" width="9" height="18"/><rect x="419" y="770" width="9" height="18"/><rect x="429" y="770" width="9" height="18"/><rect x="439" y="770" width="9" height="18"/><rect x="449" y="770" width="9" height="18"/><rect x="459" y="770" width="9" height="18"/><rect x="469" y="770" width="9" height="18"/><rect x="479" y="770" width="9" height="18"/><rect x="489" y="770" width="9" height="18"/><rect x="499" y="770" width="9" height="18"/><rect x="509" y="770" width="9" height="18"/><rect x="519" y="770" width="9" height="18"/><rect x="529" y="770" width="9" height="18"/><rect x="539" y="770" width="9" height="18"/><rect x="549" y="770" width="9" height="18"/><rect x="559" y="770" width="9" height="18"/><rect x="569" y="770" width="9" height="18"/><rect x="579" y="770" width="9" height="18"/><line x1="285" y1="793" x2="615" y2="793"/></g>
<g id="fuse-fu1" data-device-id="fuse-fu1" class="device device-fuse"><text x="652.0" y="737" class="device-label">FU1</text><rect x="635" y="745" width="34" height="82" rx="2"/><rect x="645.2" y="765" width="13.600000000000001" height="36.9"/><circle cx="652.0" cy="779.44" r="5.44"/><text x="652.0" y="783.54" class="device-label"></text></g>
<g id="fuse-fu2" data-device-id="fuse-fu2" class="device device-fuse"><text x="694.0" y="737" class="device-label">FU2</text><rect x="677" y="745" width="34" height="82" rx="2"/><rect x="687.2" y="765" width="13.600000000000001" height="36.9"/><circle cx="694.0" cy="779.44" r="5.44"/><text x="694.0" y="783.54" class="device-label"></text></g>
<g id="control-mtr5" data-device-id="control-mtr5" class="device device-overload_relay"><text x="741.0" y="732" class="device-label">MTR5</text><rect x="715" y="740" width="52" height="90" rx="2"/><rect x="730.6" y="760" width="20.8" height="40.5"/><circle cx="741.0" cy="777.8" r="8.32"/><text x="741.0" y="782.3" class="device-label">M</text></g>
<g id="control-mtr6" data-device-id="control-mtr6" class="device device-overload_relay"><text x="799.0" y="732" class="device-label">MTR6</text><rect x="773" y="740" width="52" height="90" rx="2"/><rect x="788.6" y="760" width="20.8" height="40.5"/><circle cx="799.0" cy="777.8" r="8.32"/><text x="799.0" y="782.3" class="device-label">M</text></g>
<g id="control-k1" data-device-id="control-k1" class="device device-contactor"><text x="857.0" y="732" class="device-label">K1</text><rect x="831" y="740" width="52" height="90" rx="2"/><rect x="846.6" y="760" width="20.8" height="40.5"/><circle cx="857.0" cy="777.8" r="8.32"/><text x="857.0" y="782.3" class="device-label"></text></g>
<g id="control-k2" data-device-id="control-k2" class="device device-contactor"><text x="915.0" y="732" class="device-label">K2</text><rect x="889" y="740" width="52" height="90" rx="2"/><rect x="904.6" y="760" width="20.8" height="40.5"/><circle cx="915.0" cy="777.8" r="8.32"/><text x="915.0" y="782.3" class="device-label"></text></g>
<g id="control-k3" data-device-id="control-k3" class="device device-contactor"><text x="973.0" y="732" class="device-label">K3</text><rect x="947" y="740" width="52" height="90" rx="2"/><rect x="962.6" y="760" width="20.8" height="40.5"/><circle cx="973.0" cy="777.8" r="8.32"/><text x="973.0" y="782.3" class="device-label"></text></g>
<g id="control-k4" data-device-id="control-k4" class="device device-contactor"><text x="1031.0" y="732" class="device-label">K4</text><rect x="1005" y="740" width="52" height="90" rx="2"/><rect x="1020.6" y="760" width="20.8" height="40.5"/><circle cx="1031.0" cy="777.8" r="8.32"/><text x="1031.0" y="782.3" class="device-label"></text></g>
<g id="control-d1" data-device-id="control-d1" class="device device-overload_relay"><text x="1089.0" y="732" class="device-label">D1</text><rect x="1063" y="740" width="52" height="90" rx="2"/><rect x="1078.6" y="760" width="20.8" height="40.5"/><circle cx="1089.0" cy="777.8" r="8.32"/><text x="1089.0" y="782.3" class="device-label">M</text></g>
<g id="control-k5" data-device-id="control-k5" class="device device-contactor"><text x="1147.0" y="732" class="device-label">K5</text><rect x="1121" y="740" width="52" height="90" rx="2"/><rect x="1136.6" y="760" width="20.8" height="40.5"/><circle cx="1147.0" cy="777.8" r="8.32"/><text x="1147.0" y="782.3" class="device-label"></text></g>
<g id="terminal-01" data-device-id="terminal-01" class="device device-terminal_block"><text x="136.0" y="932" class="device-label">24VDC COMMON</text><rect x="84" y="940" width="9" height="18"/><rect x="94" y="940" width="9" height="18"/><rect x="104" y="940" width="9" height="18"/><rect x="114" y="940" width="9" height="18"/><rect x="124" y="940" width="9" height="18"/><rect x="134" y="940" width="9" height="18"/><rect x="144" y="940" width="9" height="18"/><rect x="154" y="940" width="9" height="18"/><rect x="164" y="940" width="9" height="18"/><rect x="174" y="940" width="9" height="18"/><line x1="80" y1="963" x2="192" y2="963"/></g>
<g id="terminal-02" data-device-id="terminal-02" class="device device-terminal_block"><text x="256.0" y="932" class="device-label">DIGITAL INPUTS</text><rect x="204" y="940" width="9" height="18"/><rect x="214" y="940" width="9" height="18"/><rect x="224" y="940" width="9" height="18"/><rect x="234" y="940" width="9" height="18"/><rect x="244" y="940" width="9" height="18"/><rect x="254" y="940" width="9" height="18"/><rect x="264" y="940" width="9" height="18"/><rect x="274" y="940" width="9" height="18"/><rect x="284" y="940" width="9" height="18"/><rect x="294" y="940" width="9" height="18"/><line x1="200" y1="963" x2="312" y2="963"/></g>
<g id="terminal-03" data-device-id="terminal-03" class="device device-terminal_block"><text x="376.0" y="932" class="device-label">DIGITAL OUTPUTS</text><rect x="324" y="940" width="9" height="18"/><rect x="334" y="940" width="9" height="18"/><rect x="344" y="940" width="9" height="18"/><rect x="354" y="940" width="9" height="18"/><rect x="364" y="940" width="9" height="18"/><rect x="374" y="940" width="9" height="18"/><rect x="384" y="940" width="9" height="18"/><rect x="394" y="940" width="9" height="18"/><rect x="404" y="940" width="9" height="18"/><rect x="414" y="940" width="9" height="18"/><line x1="320" y1="963" x2="432" y2="963"/></g>
<g id="terminal-04" data-device-id="terminal-04" class="device device-terminal_block"><text x="496.0" y="932" class="device-label">ANALOG I/O</text><rect x="444" y="940" width="9" height="18"/><rect x="454" y="940" width="9" height="18"/><rect x="464" y="940" width="9" height="18"/><rect x="474" y="940" width="9" height="18"/><rect x="484" y="940" width="9" height="18"/><rect x="494" y="940" width="9" height="18"/><rect x="504" y="940" width="9" height="18"/><rect x="514" y="940" width="9" height="18"/><rect x="524" y="940" width="9" height="18"/><rect x="534" y="940" width="9" height="18"/><line x1="440" y1="963" x2="552" y2="963"/></g>
<g id="terminal-05" data-device-id="terminal-05" class="device device-terminal_block"><text x="616.0" y="932" class="device-label">DRIVE ENABLES</text><rect x="564" y="940" width="9" height="18"/><rect x="574" y="940" width="9" height="18"/><rect x="584" y="940" width="9" height="18"/><rect x="594" y="940" width="9" height="18"/><rect x="604" y="940" width="9" height="18"/><rect x="614" y="940" width="9" height="18"/><rect x="624" y="940" width="9" height="18"/><rect x="634" y="940" width="9" height="18"/><rect x="644" y="940" width="9" height="18"/><rect x="654" y="940" width="9" height="18"/><line x1="560" y1="963" x2="672" y2="963"/></g>
<g id="terminal-06" data-device-id="terminal-06" class="device device-terminal_block"><text x="736.0" y="932" class="device-label">INTERLOCKS</text><rect x="684" y="940" width="9" height="18"/><rect x="694" y="940" width="9" height="18"/><rect x="704" y="940" width="9" height="18"/><rect x="714" y="940" width="9" height="18"/><rect x="724" y="940" width="9" height="18"/><rect x="734" y="940" width="9" height="18"/><rect x="744" y="940" width="9" height="18"/><rect x="754" y="940" width="9" height="18"/><rect x="764" y="940" width="9" height="18"/><rect x="774" y="940" width="9" height="18"/><line x1="680" y1="963" x2="792" y2="963"/></g>
<g id="terminal-07" data-device-id="terminal-07" class="device device-terminal_block"><text x="856.0" y="932" class="device-label">E-STOPS</text><rect x="804" y="940" width="9" height="18"/><rect x="814" y="940" width="9" height="18"/><rect x="824" y="940" width="9" height="18"/><rect x="834" y="940" width="9" height="18"/><rect x="844" y="940" width="9" height="18"/><rect x="854" y="940" width="9" height="18"/><rect x="864" y="940" width="9" height="18"/><rect x="874" y="940" width="9" height="18"/><rect x="884" y="940" width="9" height="18"/><rect x="894" y="940" width="9" height="18"/><line x1="800" y1="963" x2="912" y2="963"/></g>
<g id="terminal-08" data-device-id="terminal-08" class="device device-terminal_block"><text x="976.0" y="932" class="device-label">SPARES</text><rect x="924" y="940" width="9" height="18"/><rect x="934" y="940" width="9" height="18"/><rect x="944" y="940" width="9" height="18"/><rect x="954" y="940" width="9" height="18"/><rect x="964" y="940" width="9" height="18"/><rect x="974" y="940" width="9" height="18"/><rect x="984" y="940" width="9" height="18"/><rect x="994" y="940" width="9" height="18"/><rect x="1004" y="940" width="9" height="18"/><rect x="1014" y="940" width="9" height="18"/><line x1="920" y1="963" x2="1032" y2="963"/></g>
<g id="terminal-09" data-device-id="terminal-09" class="device device-terminal_block"><text x="1096.0" y="932" class="device-label">PE / GROUND</text><rect x="1044" y="940" width="9" height="18"/><rect x="1054" y="940" width="9" height="18"/><rect x="1064" y="940" width="9" height="18"/><rect x="1074" y="940" width="9" height="18"/><rect x="1084" y="940" width="9" height="18"/><rect x="1094" y="940" width="9" height="18"/><rect x="1104" y="940" width="9" height="18"/><rect x="1114" y="940" width="9" height="18"/><rect x="1124" y="940" width="9" height="18"/><rect x="1134" y="940" width="9" height="18"/><line x1="1040" y1="963" x2="1152" y2="963"/></g></g>
<g id="cabinet-information"><rect x="1290" y="95" width="285" height="170" class="info"/><text x="1305" y="120" class="info-label">CABINET INFORMATION</text><text x="1305" y="147" class="info-text">ASSET ID: FIELD VERIFY</text><text x="1305" y="172" class="info-text">LOCATION: FIELD VERIFY</text><text x="1305" y="197" class="info-text">PANEL SOURCE: FIELD VERIFY</text><text x="1305" y="222" class="info-text">VOLTAGE: 480VAC 3 PHASE</text><text x="1305" y="247" class="info-text">CONTROL VOLTAGE: 24VDC</text>
<rect x="1290" y="280" width="285" height="285" class="info"/><text x="1305" y="307" class="info-label">LEGEND</text><text x="1305" y="338" class="info-text">SQUARE - CIRCUIT BREAKER</text><text x="1305" y="370" class="info-text">CIRCLE - MOTOR PROTECTOR</text><text x="1305" y="402" class="info-text">DRIVE - VFD</text><text x="1305" y="434" class="info-text">CONTACTOR / OVERLOAD</text><text x="1305" y="466" class="info-text">POWER SUPPLY</text><text x="1305" y="498" class="info-text">TERMINAL BLOCK</text>
<rect x="1290" y="580" width="285" height="190" class="info"/><text x="1305" y="607" class="info-label">NOTES</text><text x="1305" y="638" class="info-text">1. NO CONDUCTORS SHOWN.</text><text x="1305" y="670" class="info-text">2. DEVICE PLACEMENT FROM</text><text x="1322" y="690" class="info-text">APPROVED REFERENCE RENDER.</text><text x="1305" y="722" class="info-text">3. VERIFY FIELD IDENTIFIERS.</text>
<rect x="1290" y="785" width="285" height="195" class="info"/><text x="1305" y="812" class="info-label">DRAWING INFO</text><text x="1305" y="844" class="info-text">STATUS: WORKING DOCUMENT</text><text x="1305" y="876" class="info-text">REV: A</text><text x="1305" y="908" class="info-text">DWG NO: L2-CC-INT-001</text><text x="1305" y="940" class="info-text">SHEET: 1 OF 1</text></g></svg>